<?xml version="1.0" encoding="utf-8"?>
<!-- Generator: Adobe Illustrator 28.0.0, SVG Export Plug-In . SVG Version: 6.00 Build 0)  -->
<svg version="1.1" xmlns="http://www.w3.org/2000/svg" xmlns:xlink="http://www.w3.org/1999/xlink" x="0px" y="0px"
	 viewBox="0 0 2592 1728" style="enable-background:new 0 0 2592 1728;" xml:space="preserve">
<style type="text/css">
	.st0{display:none;}
	.st1{display:inline;}
	.st2{fill:none;stroke:#231F20;stroke-miterlimit:10;}
	.st3{fill:none;stroke:#FF0000;stroke-width:1.000000e-03;}
</style>
<g id="Reference" class="st0">
	<g class="st1">
		<polygon class="st2" points="1964.98,145.79 627.02,145.79 683.72,-835 1908.28,-835 		"/>
		<line class="st2" x1="1944.93" y1="125.74" x2="1964.98" y2="145.79"/>
		<line class="st2" x1="627.02" y1="145.79" x2="647.07" y2="125.74"/>
		<line class="st2" x1="1878.22" y1="-804.93" x2="1908.28" y2="-835"/>
		<line class="st2" x1="713.78" y1="-804.93" x2="683.72" y2="-835"/>
	</g>
</g>
<g id="Final">
	<g>
		<path class="st3" d="M219.63,1599.62c3.52,0,6.38,2.86,6.38,6.38s-2.86,6.38-6.38,6.38s-6.38-2.86-6.38-6.38
			S216.11,1599.62,219.63,1599.62z"/>
		<path class="st3" d="M262.15,1559.33v93.34c0,5.54-4.49,10.02-10.03,10.02h-64.99c-5.54,0-10.03-4.49-10.03-10.02v-93.34
			c0-5.54,4.49-10.02,10.03-10.02h64.99C257.66,1549.31,262.15,1553.8,262.15,1559.33z"/>
		<path class="st3" d="M118.64,1599.62c3.52,0,6.38,2.86,6.38,6.38s-2.86,6.38-6.38,6.38c-3.52,0-6.38-2.86-6.38-6.38
			S115.12,1599.62,118.64,1599.62z"/>
		<path class="st3" d="M161.16,1559.33v93.34c0,5.54-4.49,10.02-10.02,10.02H86.15c-5.54,0-10.02-4.49-10.02-10.02v-93.34
			c0-5.54,4.49-10.02,10.02-10.02h64.99C156.67,1549.31,161.16,1553.8,161.16,1559.33z"/>
		<path class="st3" d="M219.63,1469.62c3.52,0,6.38,2.86,6.38,6.38s-2.86,6.38-6.38,6.38s-6.38-2.86-6.38-6.38
			S216.11,1469.62,219.63,1469.62z"/>
		<path class="st3" d="M262.15,1429.33v93.34c0,5.54-4.49,10.02-10.03,10.02h-64.99c-5.54,0-10.03-4.49-10.03-10.02v-93.34
			c0-5.54,4.49-10.02,10.03-10.02h64.99C257.66,1419.31,262.15,1423.8,262.15,1429.33z"/>
		<path class="st3" d="M118.64,1469.62c3.52,0,6.38,2.86,6.38,6.38s-2.86,6.38-6.38,6.38c-3.52,0-6.38-2.86-6.38-6.38
			S115.12,1469.62,118.64,1469.62z"/>
		<path class="st3" d="M161.16,1429.33v93.34c0,5.54-4.49,10.02-10.02,10.02H86.15c-5.54,0-10.02-4.49-10.02-10.02v-93.34
			c0-5.54,4.49-10.02,10.02-10.02h64.99C156.67,1419.31,161.16,1423.8,161.16,1429.33z"/>
	</g>
	<g>
		<g>
			<path class="st3" d="M104.47,924.42c3.52,0,6.38,2.86,6.38,6.38c0,3.52-2.86,6.38-6.38,6.38c-3.52,0-6.38-2.86-6.38-6.38
				C98.09,927.27,100.95,924.42,104.47,924.42z"/>
			<path class="st3" d="M104.47,470.83c3.52,0,6.38,2.86,6.38,6.38c0,3.52-2.86,6.38-6.38,6.38c-3.52,0-6.38-2.86-6.38-6.38
				C98.09,473.68,100.95,470.83,104.47,470.83z"/>
		</g>
		<g>
			<path class="st3" d="M1056.91,65.06v1277.89c0,16.3-13.71,29.24-29.98,28.3l-910.74-52.64c-22.49-1.3-40.07-19.92-40.07-42.45
				V131.85c0-22.53,17.57-41.15,40.07-42.45l910.74-52.64C1043.2,35.82,1056.91,48.76,1056.91,65.06z"/>
			<path class="st3" d="M1014.39,244.08c3.52,0,6.38,2.86,6.38,6.38c0,3.52-2.86,6.38-6.38,6.38c-3.52,0-6.38-2.86-6.38-6.38
				C1008.01,246.93,1010.87,244.08,1014.39,244.08z"/>
			<path class="st3" d="M1014.39,1151.17c3.52,0,6.38,2.86,6.38,6.38s-2.86,6.38-6.38,6.38c-3.52,0-6.38-2.86-6.38-6.38
				S1010.87,1151.17,1014.39,1151.17z"/>
		</g>
	</g>
	<g>
		<g>
			<path class="st3" d="M2025.45,483.58c-3.52,0-6.38-2.86-6.38-6.38c0-3.52,2.86-6.38,6.38-6.38c3.52,0,6.38,2.86,6.38,6.38
				C2031.83,480.73,2028.98,483.58,2025.45,483.58z"/>
			<path class="st3" d="M2025.45,937.17c-3.52,0-6.38-2.86-6.38-6.38c0-3.52,2.86-6.38,6.38-6.38c3.52,0,6.38,2.86,6.38,6.38
				C2031.83,934.32,2028.98,937.17,2025.45,937.17z"/>
		</g>
		<g>
			<path class="st3" d="M1073.01,1342.94V65.06c0-16.3,13.71-29.24,29.98-28.3l910.74,52.64c22.49,1.3,40.07,19.92,40.07,42.45
				v1144.3c0,22.53-17.57,41.15-40.07,42.45l-910.74,52.64C1086.72,1372.18,1073.01,1359.24,1073.01,1342.94z"/>
			<path class="st3" d="M1115.53,1163.92c-3.52,0-6.38-2.86-6.38-6.38c0-3.52,2.86-6.38,6.38-6.38s6.38,2.86,6.38,6.38
				C1121.91,1161.07,1119.05,1163.92,1115.53,1163.92z"/>
			<path class="st3" d="M1115.53,256.83c-3.52,0-6.38-2.86-6.38-6.38c0-3.52,2.86-6.38,6.38-6.38s6.38,2.86,6.38,6.38
				C1121.91,253.98,1119.05,256.83,1115.53,256.83z"/>
		</g>
		<g>
			<path class="st3" d="M1445.27,959.14h366.67c15.66,0,28.35-12.69,28.35-28.35s-12.69-28.35-28.35-28.35h-366.67
				c-15.66,0-28.35,12.69-28.35,28.35S1429.61,959.14,1445.27,959.14z"/>
		</g>
		<g>
			<path class="st3" d="M1445.27,505.55h366.67c15.66,0,28.35-12.69,28.35-28.35s-12.69-28.35-28.35-28.35h-366.67
				c-15.66,0-28.35,12.69-28.35,28.35S1429.61,505.55,1445.27,505.55z"/>
		</g>
	</g>
	<g>
		<path class="st3" d="M418.99,1599.62c3.52,0,6.38,2.86,6.38,6.38s-2.86,6.38-6.38,6.38s-6.38-2.86-6.38-6.38
			S415.47,1599.62,418.99,1599.62z"/>
		<path class="st3" d="M461.51,1559.33v93.34c0,5.54-4.49,10.02-10.03,10.02h-64.99c-5.54,0-10.02-4.49-10.02-10.02v-93.34
			c0-5.54,4.49-10.02,10.02-10.02h64.99C457.02,1549.31,461.51,1553.8,461.51,1559.33z"/>
		<path class="st3" d="M318,1599.62c3.52,0,6.38,2.86,6.38,6.38s-2.86,6.38-6.38,6.38c-3.52,0-6.38-2.86-6.38-6.38
			S314.48,1599.62,318,1599.62z"/>
		<path class="st3" d="M360.52,1559.33v93.34c0,5.54-4.49,10.02-10.02,10.02h-64.99c-5.54,0-10.02-4.49-10.02-10.02v-93.34
			c0-5.54,4.49-10.02,10.02-10.02h64.99C356.03,1549.31,360.52,1553.8,360.52,1559.33z"/>
		<path class="st3" d="M418.99,1469.62c3.52,0,6.38,2.86,6.38,6.38s-2.86,6.38-6.38,6.38s-6.38-2.86-6.38-6.38
			S415.47,1469.62,418.99,1469.62z"/>
		<path class="st3" d="M461.51,1429.33v93.34c0,5.54-4.49,10.02-10.03,10.02h-64.99c-5.54,0-10.02-4.49-10.02-10.02v-93.34
			c0-5.54,4.49-10.02,10.02-10.02h64.99C457.02,1419.31,461.51,1423.8,461.51,1429.33z"/>
		<path class="st3" d="M318,1469.62c3.52,0,6.38,2.86,6.38,6.38s-2.86,6.38-6.38,6.38c-3.52,0-6.38-2.86-6.38-6.38
			S314.48,1469.62,318,1469.62z"/>
		<path class="st3" d="M360.52,1429.33v93.34c0,5.54-4.49,10.02-10.02,10.02h-64.99c-5.54,0-10.02-4.49-10.02-10.02v-93.34
			c0-5.54,4.49-10.02,10.02-10.02h64.99C356.03,1419.31,360.52,1423.8,360.52,1429.33z"/>
	</g>
</g>
<g id="Layer_3">
</g>
</svg>
